<svg width="226" height="64" viewBox="0 0 226 64" fill="none" xmlns="http://www.w3.org/2000/svg">
<g clip-path="url(#clip0_1_1059)">
<path d="M19.277 43.2043L21.6664 42.823V20.7388L19 20.3922L19.1385 18H35.8292L35.4137 24.6911L32.0894 24.5871L31.8816 20.3922H26.7221V30.3421H28.9729L29.4923 28.054L31.8124 28.1233V34.9878H29.4923L28.9383 32.6303H26.6874V43.1697H31.8816L32.3664 38.5934L35.8639 38.6974L36.1409 45.6658H19.1731L19.277 43.2043ZM37.6989 45.7006L37.8028 43.6551L39.6727 43.2738V29.3368L37.4912 29.1288V27.0487L42.9624 26.2513L43.3779 27.43V28.2274C44.6938 26.8407 46.2867 26.0086 48.3297 26.0086C51.3078 26.0086 53.524 27.8114 53.524 31.3823V43.2391L55.4978 43.6204L55.3939 45.6659H48.8838V32.4224C48.8838 30.5156 48.1912 29.4408 46.4598 29.4408C45.8712 29.4408 45.4556 29.5448 45.0054 29.7182C44.7284 29.9609 44.4514 30.3076 44.209 30.6196V43.3084L46.1828 43.6898L46.0443 45.7352H37.6989V45.7006ZM142.31 45.7006L142.38 43.6551L144.25 43.2738V29.3368L142.068 29.1288V27.0487L147.539 26.2513L147.955 27.43V28.2274C149.271 26.8407 150.864 26.0086 152.907 26.0086C155.885 26.0086 158.101 27.8114 158.101 31.3823V43.2391L160.075 43.6204L159.971 45.6659H153.495V32.4224C153.495 30.5156 152.803 29.4408 151.071 29.4408C150.483 29.4408 150.067 29.5448 149.617 29.7182C149.34 29.9609 149.063 30.3076 148.82 30.6196V43.3084L150.794 43.6898L150.656 45.7352H142.31V45.7006ZM65.817 45.3192C65.0552 45.6312 63.7047 45.9779 61.9387 45.9779C59.6186 45.9779 57.4717 44.9378 57.4717 41.5403V29.3368L55.2555 28.9901L55.3593 26.5633L57.8526 26.4593L58.926 22.7497L62.1118 22.611V26.5979H65.54L65.2976 29.0248L62.1464 29.3715V41.5749C62.1464 42.5803 62.7005 43.239 63.7393 43.239H65.6093L65.817 45.3192ZM195.43 45.7005L195.499 43.6897L197.265 43.2736V29.3367L195.188 29.1287V27.0486L200.867 26.2512L201.247 27.6033V28.054C202.736 26.9446 204.745 26.2165 207.169 26.2165L208 26.9446L207.411 32.2142L204.295 32.1102L203.983 29.3021C203.256 29.4061 202.563 29.6141 201.975 30.0301V43.3083L203.948 43.7243L203.81 45.7351H195.43V45.7005ZM113.881 45.7005L113.985 43.6897L115.751 43.2736V29.3367L113.673 29.1287V27.0486L119.352 26.2512L119.733 27.6033V28.054C121.222 26.9446 123.23 26.2165 125.654 26.2165L126.485 26.9446L125.827 32.2142L122.711 32.1102L122.399 29.3021C121.672 29.4061 120.979 29.6141 120.391 30.0301V43.3083L122.365 43.7243L122.226 45.7351H113.881V45.7005ZM67.2021 45.7005L67.306 43.6897L69.072 43.2736V29.3367L66.9943 29.1287V27.0486L72.6733 26.2512L73.0542 27.6033V28.054C74.5432 26.9446 76.5517 26.2165 78.941 26.2165L79.7721 26.9446L79.1834 32.2142L76.0669 32.1102L75.7552 29.3021C75.028 29.4061 74.3355 29.6141 73.7468 30.0301V43.3083L75.7206 43.7243L75.5821 45.7351H67.2021V45.7005ZM85.1393 37.2066C85.1393 40.5348 86.5937 43.1003 89.4678 43.1003C90.9568 43.1003 92.1342 42.7883 93.5193 42.1296L94.3158 43.967C92.896 45.1111 90.8183 45.9778 88.2212 45.9778C83.1655 45.9778 80.2567 41.6095 80.2567 35.9932C80.2567 31.2089 82.3691 25.9738 88.1519 25.9738C93.2076 25.9738 95.1122 30.6541 95.1122 35.8545L94.6274 37.1026L85.1393 37.2066ZM85.0701 34.9878L90.8876 34.7104C90.7837 32.3876 90.2989 28.7127 88.0134 28.7127C87.4594 28.7127 87.0785 28.8167 86.3859 29.1634C85.451 30.7582 85.0701 33.6357 85.0701 34.9878ZM165.615 37.2066C165.615 40.5348 167.069 43.1003 169.943 43.1003C171.432 43.1003 172.61 42.7883 173.995 42.1296L174.791 43.967C173.372 45.1111 171.294 45.9778 168.697 45.9778C163.641 45.9778 160.732 41.6095 160.732 35.9932C160.732 31.2089 162.845 25.9738 168.628 25.9738C173.683 25.9738 175.588 30.6541 175.588 35.8545L175.103 37.1026L165.615 37.2066ZM165.546 34.9878L171.363 34.7104C171.259 32.3876 170.775 28.7127 168.489 28.7127C167.935 28.7127 167.554 28.8167 166.862 29.1634C165.927 30.7582 165.546 33.6357 165.546 34.9878ZM131.818 37.2066C131.818 40.5348 133.273 43.1003 136.147 43.1003C137.636 43.1003 138.813 42.7883 140.198 42.1296L140.995 43.967C139.575 45.1111 137.497 45.9778 134.9 45.9778C129.844 45.9778 126.936 41.6095 126.936 35.9932C126.936 31.2089 129.048 25.9738 134.831 25.9738C139.886 25.9738 141.791 30.6541 141.791 35.8545L141.306 37.1026L131.818 37.2066ZM131.749 34.9878L137.566 34.7104C137.463 32.3876 136.978 28.7127 134.692 28.7127C134.138 28.7127 133.757 28.8167 133.065 29.1634C132.13 30.7582 131.714 33.6357 131.749 34.9878ZM188.677 45.7005L188.193 44.0364C186.911 45.2498 185.665 45.9778 183.726 45.9778C180.748 45.9778 178.081 44.4871 178.081 40.3615V28.8514L175.9 28.6434V26.8059L182.202 26.0779L182.687 27.742V39.8068C182.687 41.9216 183.552 43.031 185.249 43.031C185.734 43.031 186.357 42.9616 186.911 42.7536C187.223 42.4416 187.535 42.0603 187.777 41.6789V28.8514L185.526 28.6434V26.8059L191.898 26.0779L192.383 27.742V43.2737L194.356 43.655L194.114 45.7005H188.677ZM104.566 43.2044C103.562 43.2044 102.765 43.0311 102.142 42.6844V30.4462C102.419 30.0302 102.731 29.6489 103.042 29.3022C103.631 29.0942 104.15 29.0248 104.774 29.0248C107.371 29.0248 107.821 31.6597 107.821 36.3746C107.821 40.9163 107.128 42.1643 106.955 42.6844C106.228 43.0311 105.466 43.2044 104.566 43.2044ZM112.323 35.5426C112.323 29.6835 110.591 26.0086 106.263 26.0086C103.389 26.0086 102.038 27.6727 101.484 28.3661V27.7074L100.999 26.0433L95.3548 26.8407V28.8515L97.5364 29.1288V52.773L95.6665 53.1544L95.5626 55.1305H103.908L104.046 53.1544L102.073 52.773V45.2845C102.869 45.7352 103.977 46.0126 105.189 46.0126C112.253 46.0126 112.323 38.8361 112.323 35.5426Z" fill="#949CB2"/>
</g>
<defs>
<clipPath id="clip0_1_1059">
<rect width="226" height="64" fill="white"/>
</clipPath>
</defs>
</svg>
