<svg width="138" height="64" viewBox="0 0 138 64" fill="none" xmlns="http://www.w3.org/2000/svg">
<g clip-path="url(#clip0_1_1056)">
<path d="M26.2048 20.609H28.5268C29.9409 20.3988 31.3851 20.5836 32.7025 21.1431C34.3551 22.1459 35.5539 23.7603 36.043 25.642C36.3892 26.628 36.3892 26.628 37.2244 26.2788H37.8762V18.4725H16.0203V19.8489H16.9165C17.306 19.8461 17.6911 19.9315 18.0436 20.0985C18.3961 20.2656 18.707 20.5102 18.9534 20.8144C19.7885 22.1702 19.9311 23.6904 19.9311 31.5994C19.9311 40.0015 19.7478 42.0558 18.9534 43.1034C18.7573 43.3728 18.5034 43.594 18.2107 43.7505C17.9179 43.907 17.5939 43.9948 17.2628 44.0073C16.0203 44.2333 16.0203 44.2128 16.0203 44.7674C15.9516 44.9529 15.9516 45.1571 16.0203 45.3426H29.8101C29.9013 45.1612 29.9489 44.9606 29.9489 44.7571C29.9489 44.5537 29.9013 44.3531 29.8101 44.1717C29.4761 44.078 29.1357 44.0093 28.7916 43.9662C28.4194 43.9216 28.0515 43.846 27.6917 43.7403C27.1764 43.3609 26.7682 42.8524 26.5074 42.2651C26.2466 41.6779 26.1423 41.0322 26.2048 40.3918C26.0011 39.0359 25.8992 36.5503 25.8992 34.496V32.8731H26.714C27.7291 32.8418 28.7436 32.9524 29.7286 33.2018C30.2005 33.4959 30.6022 33.8914 30.905 34.3601C31.2078 34.8289 31.4042 35.3593 31.4803 35.9134L31.6636 36.5503H32.9061V27.4497H31.7655L31.5822 28.3331C31.505 28.8998 31.2972 29.4404 30.9752 29.9113C30.6533 30.3823 30.2263 30.7705 29.7286 31.0448C29.2466 31.1894 28.7387 31.2245 28.2417 31.1475H25.8992V28.9288C25.8992 26.628 26.0214 21.7799 26.1029 21.0198L26.2048 20.609ZM121.531 36.8995C120.569 35.3366 119.067 34.1879 117.315 33.6742C115.972 33.2509 114.731 32.5514 113.669 31.62C113.43 31.3869 113.251 31.0985 113.148 30.7798C113.045 30.4611 113.021 30.1219 113.078 29.7916C113.08 29.1439 113.336 28.5233 113.791 28.066C114.1 27.7403 114.49 27.5052 114.92 27.3858C115.351 27.2664 115.805 27.2672 116.236 27.3881C117.126 27.6441 117.931 28.1382 118.566 28.8181C119.201 29.498 119.641 30.3383 119.841 31.2502C120.167 32.1746 120.207 32.1746 120.798 31.9281L121.165 31.7843V26.6691L120.9 26.5459C118.895 25.8355 116.768 25.542 114.647 25.6831C112.82 25.7297 111.077 26.4623 109.758 27.7373C109.16 28.302 108.692 28.9918 108.385 29.7583C108.079 30.5247 107.943 31.3494 107.986 32.1746C107.998 33.4362 108.494 34.6441 109.371 35.5437C110.34 36.5051 111.53 37.2106 112.834 37.5979C115.991 38.8511 116.908 39.6522 116.908 41.1108C116.921 41.7259 116.727 42.3273 116.357 42.8163C115.987 43.3054 115.463 43.6529 114.871 43.8019C114.16 43.9595 113.423 43.9595 112.712 43.8019C111.78 43.4374 110.949 42.8539 110.287 42.1C109.624 41.3461 109.15 40.4435 108.903 39.4673L108.638 38.81H108.271C108.096 38.8231 107.924 38.8647 107.762 38.9332H107.558V44.7674H107.905C109.281 45.2291 110.701 45.5458 112.141 45.7124H114.178C115.062 45.7778 115.95 45.6945 116.806 45.4659C117.893 45.2636 118.909 44.7779 119.752 44.0571C120.595 43.3364 121.237 42.4056 121.613 41.3573C121.856 40.7718 121.981 40.1432 121.98 39.5084C122.06 38.6142 121.905 37.7144 121.531 36.8995ZM102.344 26.2788C101.123 25.762 99.8082 25.5112 98.4847 25.5431C97.1613 25.575 95.8595 25.8887 94.6648 26.4637C93.5418 27.0177 92.5464 27.803 91.743 28.769C90.9396 29.735 90.3459 30.8602 90.0003 32.0719C89.5597 33.3937 89.3731 34.7881 89.4503 36.1805C89.4358 36.938 89.4972 37.6951 89.6337 38.4402C89.9626 40.2722 90.8396 41.9589 92.1467 43.2735C93.4539 44.5882 95.1287 45.4679 96.9461 45.7946C98.1296 45.9449 99.3272 45.9449 100.511 45.7946C101.739 45.5763 102.914 45.123 103.973 44.4593C104.85 43.9639 105.591 43.2583 106.133 42.405C106.098 42.2711 106.037 42.1457 105.953 42.0362C105.869 41.9268 105.763 41.8356 105.644 41.7682C105.411 41.8531 105.192 41.9706 104.992 42.1174C103.979 42.7908 102.782 43.1283 101.57 43.0829C100.765 43.1378 99.9582 43.0114 99.2079 42.7129C98.4575 42.4145 97.7823 41.9514 97.2313 41.3573C96.805 40.958 96.4532 40.4849 96.1925 39.9604C95.5595 38.6833 95.2185 37.2793 95.1944 35.8518V35.0506H106.479V34.6398C106.504 34.2293 106.504 33.8177 106.479 33.4072C106.475 31.9567 106.09 30.5331 105.364 29.281C104.638 28.029 103.596 26.9932 102.344 26.2788ZM96.6609 33.3866H95.2351V32.1746C95.7036 29.0726 96.8646 27.2238 98.2905 27.2238C99.7163 27.2238 100.327 29.0521 100.592 32.4006V33.3456H99.37L96.6609 33.3866ZM67.3704 25.6009C66.6666 25.5734 65.9669 25.7215 65.3335 26.0323C63.9568 26.7066 62.8449 27.828 62.1763 29.2164L61.9115 29.7095V25.6009H61.8097C61.5653 25.6009 54.0287 27.1211 53.7843 27.2238C53.5399 27.3265 53.6214 27.347 53.6214 27.7168C53.6214 28.0866 53.6214 28.1482 53.7843 28.1687L54.5787 28.3331C54.8012 28.3386 55.0195 28.3951 55.2171 28.4983C55.4148 28.6015 55.5865 28.7488 55.7194 28.9288C56.2286 29.6067 56.3304 30.7982 56.3304 35.8723C56.431 38.1566 56.3356 40.4454 56.0453 42.7131C55.9769 43.0551 55.805 43.3672 55.5532 43.6064C55.3015 43.8455 54.9823 44 54.6398 44.0484L53.9473 44.1922H53.6825V44.7674C53.6086 44.959 53.6086 45.1716 53.6825 45.3632H65.0687V44.7674C65.1082 44.5708 65.1082 44.3683 65.0687 44.1717C64.3832 44.1447 63.7014 44.0553 63.0318 43.9046C62.6672 43.7123 62.3689 43.413 62.1762 43.0463C61.9835 42.6796 61.9054 42.2626 61.9523 41.8503C61.7893 40.6588 61.7078 37.1665 61.7486 34.496C61.7893 31.8254 61.7486 31.661 61.9726 31.4762C62.6542 30.9491 63.4977 30.6801 64.3558 30.7161C65.1647 30.7339 65.9589 30.9376 66.6779 31.3118C66.9271 31.4514 67.1945 31.5551 67.4722 31.62C67.4722 31.62 69.5091 26.6486 69.5091 26.4226C69.2485 26.1171 68.9164 25.882 68.543 25.7385C68.1695 25.595 67.7665 25.5477 67.3704 25.6009ZM53.6417 34.2289C53.5706 32.7609 53.1527 31.3313 52.4229 30.0592C51.693 28.7871 50.6723 27.7093 49.4457 26.9156C47.9881 26.1226 46.3664 25.6853 44.7109 25.6389C43.0553 25.5925 41.4121 25.9383 39.9131 26.6486C37.7937 27.7757 36.1934 29.6918 35.4523 31.9897C34.6867 34.5625 34.6867 37.3054 35.4523 39.8782C35.8536 41.2843 36.6037 42.564 37.6317 43.5965C38.9121 44.8565 40.5631 45.6638 42.337 45.8973C43.4756 45.9933 44.6203 45.9933 45.7589 45.8973C46.178 45.833 46.5929 45.7438 47.0015 45.6302C48.6594 45.1625 50.151 44.2282 51.3017 42.9367C52.4524 41.6452 53.2146 40.0499 53.4991 38.3375C53.7025 36.978 53.7503 35.5994 53.6417 34.2289ZM45.1682 44.5004C43.1314 45.1166 41.6037 43.124 41.0945 38.9332C40.9075 36.7392 40.9075 34.533 41.0945 32.339C41.5018 28.9699 42.5407 27.2649 44.1498 27.2649C44.4745 27.2446 44.7992 27.303 45.0969 27.4352C45.3945 27.5675 45.6565 27.7697 45.8608 28.0249C47.2255 29.4013 47.8977 32.1335 47.8977 36.2421C48.0672 38.5673 47.7048 40.9007 46.8385 43.0624C46.456 43.6928 45.8641 44.1659 45.1682 44.3976V44.5004ZM81.8324 26.0117C81.2576 25.9371 80.6757 25.9371 80.101 26.0117C78.9977 26.0108 77.9071 26.249 76.9031 26.7102L76.2716 26.9773V22.5194C76.382 21.015 76.382 19.5044 76.2716 18C76.0272 18 68.2463 19.4996 68.1241 19.5613C68.064 19.7129 68.064 19.8821 68.1241 20.0337C68.1241 20.4651 68.1241 20.4446 69.0407 20.65C69.298 20.7082 69.5452 20.8052 69.7739 20.9376C70.1715 21.3147 70.4362 21.8124 70.5276 22.3551C70.7595 23.9185 70.8346 25.5014 70.7517 27.08V45.1166L71.3016 45.2399C72.1164 45.4248 74.4181 45.8151 75.1717 45.8973C76.6766 46.018 78.1887 46.018 79.6936 45.8973C81.364 45.7252 82.9562 45.0967 84.2986 44.0795C85.641 43.0623 86.6828 41.6949 87.3116 40.1247C87.6865 39.1169 87.9462 38.0693 88.0856 37.0022C88.2069 35.5567 88.159 34.1019 87.943 32.6676C87.7245 31.06 87.021 29.559 85.9278 28.3684C84.8347 27.1777 83.4049 26.355 81.8324 26.0117ZM76.4957 44.1511C76.4957 43.8841 76.292 34.8863 76.3327 31.2913V28.4769L76.9234 28.3331C77.322 28.2755 77.7267 28.2755 78.1252 28.3331C78.566 28.2879 79.0093 28.3889 79.3881 28.6207C80.1488 29.1502 80.7804 29.8468 81.2356 30.658C81.6907 31.4693 81.9574 32.3742 82.0157 33.3045C82.1641 34.8004 82.1641 36.3075 82.0157 37.8034C81.8938 39.9775 81.0631 42.0502 79.6529 43.6992C79.2526 44.0826 78.7499 44.3397 78.2067 44.4387C77.7956 44.5108 77.3753 44.5108 76.9642 44.4387C76.5772 44.4387 76.5772 44.3155 76.5772 44.1511H76.4957Z" fill="#949CB2"/>
</g>
<defs>
<clipPath id="clip0_1_1056">
<rect width="138" height="64" fill="white"/>
</clipPath>
</defs>
</svg>
