<svg width="140" height="40" viewBox="0 0 140 40" fill="none" xmlns="http://www.w3.org/2000/svg">
<g clip-path="url(#clip0_1_1082)">
<path d="M32.6571 16.5412L22.7523 19.3715C22.503 19.4428 22.2768 19.5784 22.0965 19.7648C21.9162 19.9511 21.7881 20.1816 21.7251 20.4331L20.9615 23.4925C20.8984 23.744 20.7703 23.9745 20.59 24.1609C20.4097 24.3472 20.1836 24.4829 19.9343 24.5542L10.4408 27.2589C10.1912 27.3304 9.96487 27.4664 9.78455 27.6532C9.60423 27.84 9.4763 28.071 9.41364 28.323L8.12535 33.4442C8.11497 33.4862 8.11585 33.5302 8.12788 33.5717C8.13992 33.6133 8.16269 33.6509 8.1939 33.6809C8.22512 33.7109 8.26367 33.7321 8.30569 33.7424C8.34771 33.7527 8.39171 33.7518 8.43326 33.7397L18.3356 30.9094C18.5849 30.8381 18.8111 30.7025 18.9914 30.5161C19.1717 30.3298 19.2998 30.0993 19.3628 29.8478L20.1264 26.7958C20.1895 26.5443 20.3176 26.3137 20.4979 26.1274C20.6782 25.941 20.9043 25.8054 21.1536 25.7341L30.6471 23.0245C30.8967 22.953 31.123 22.817 31.3033 22.6302C31.4837 22.4434 31.6116 22.2123 31.6743 21.9604L32.9625 16.8417C32.9738 16.7996 32.9737 16.7553 32.9622 16.7133C32.9508 16.6713 32.9284 16.633 32.8973 16.6025C32.8663 16.5719 32.8277 16.5502 32.7855 16.5394C32.7433 16.5286 32.699 16.5292 32.6571 16.5412Z" fill="white"/>
<path d="M32.6571 6.24995L22.7523 9.0901C22.503 9.16141 22.2768 9.29705 22.0965 9.4834C21.9162 9.66975 21.7881 9.90026 21.7251 10.1518L20.9615 13.2038C20.8984 13.4553 20.7703 13.6858 20.59 13.8721C20.4097 14.0585 20.1836 14.1941 19.9343 14.2654L10.4408 16.9775C10.1912 17.049 9.96487 17.185 9.78455 17.3718C9.60423 17.5587 9.4763 17.7897 9.41364 18.0416L8.12535 23.1628C8.11497 23.2048 8.11585 23.2488 8.12788 23.2904C8.13992 23.3319 8.16269 23.3696 8.1939 23.3995C8.22512 23.4295 8.26367 23.4507 8.30569 23.4611C8.34771 23.4714 8.39171 23.4705 8.43326 23.4584L18.3356 20.6281C18.5849 20.5568 18.8111 20.4211 18.9914 20.2348C19.1717 20.0484 19.2998 19.8179 19.3628 19.5664L20.1264 16.5144C20.1895 16.2629 20.3176 16.0324 20.4979 15.846C20.6782 15.6597 20.9043 15.524 21.1536 15.4527L30.6471 12.7431C30.8992 12.6719 31.1279 12.5349 31.3097 12.3462C31.4915 12.1575 31.6199 11.9238 31.6816 11.6692L32.9625 6.548C32.9733 6.50609 32.9727 6.46209 32.961 6.42045C32.9493 6.3788 32.9269 6.34096 32.8959 6.31075C32.865 6.28054 32.8266 6.25901 32.7847 6.24834C32.7427 6.23766 32.6987 6.23822 32.6571 6.24995Z" fill="white"/>
</g>
<g clip-path="url(#clip1_1_1082)">
<path d="M119.382 29.1734V15.7978H122.062V17.6847C122.855 16.2929 124.395 15.4505 126.306 15.4505C126.991 15.4327 127.672 15.5507 128.311 15.7976C128.95 16.0445 129.533 16.4154 130.028 16.889C131.045 17.8571 131.568 19.2218 131.568 21.0347V29.1635H128.811V21.8033C128.811 19.34 127.521 17.9827 125.609 17.9827C123.547 17.9827 122.109 19.5691 122.109 21.8525V29.1734H119.382Z" fill="white"/>
<path d="M117.197 23.5394H106.748C107.144 25.6258 108.61 27.0397 111.182 27.0397C112.803 27.0108 114.38 26.511 115.722 25.6011L116.864 27.6112C115.176 28.8081 113.16 29.4573 111.091 29.4709C106.078 29.4709 103.92 25.9731 103.92 22.4481C103.92 20.4381 104.538 18.7754 105.804 17.46C107.071 16.1446 108.733 15.4746 110.731 15.4746C112.642 15.4746 114.231 16.0707 115.446 17.2851C116.66 18.4995 117.283 20.1401 117.283 22.2117C117.288 22.6558 117.259 23.0996 117.197 23.5394ZM106.748 21.3076H114.539C114.317 19.1966 112.753 17.827 110.743 17.827C108.684 17.827 107.149 19.2213 106.748 21.3076Z" fill="white"/>
<path d="M99.0033 10.3613H101.757V29.1734H99.0476V27.3136C98.5244 28.0059 97.8448 28.5646 97.0644 28.9439C96.2839 29.3233 95.4247 29.5125 94.5571 29.496C93.6618 29.5187 92.7718 29.3512 91.946 29.0047C91.1202 28.6583 90.3771 28.1406 89.766 27.486C88.4972 26.1297 87.8109 24.33 87.8545 22.4733C87.8112 20.6312 88.4983 18.8469 89.766 17.5098C90.3674 16.8477 91.1045 16.3232 91.9271 15.9721C92.7497 15.621 93.6383 15.4514 94.5324 15.4751C96.2937 15.4751 97.7815 16.1944 98.9983 17.66L99.0033 10.3613ZM98.0106 19.3055C97.6081 18.8893 97.1261 18.5583 96.5931 18.3323C96.0601 18.1062 95.487 17.9897 94.9081 17.9897C94.3291 17.9897 93.7561 18.1062 93.2231 18.3323C92.6901 18.5583 92.208 18.8893 91.8056 19.3055C91.0107 20.1686 90.5838 21.3077 90.6158 22.4806C90.5834 23.6699 91.0093 24.8261 91.8056 25.71C92.2121 26.119 92.6956 26.4435 93.228 26.665C93.7604 26.8864 94.3314 27.0004 94.9081 27.0004C95.4847 27.0004 96.0557 26.8864 96.5882 26.665C97.1206 26.4435 97.604 26.119 98.0106 25.71C98.8078 24.8275 99.2347 23.672 99.2028 22.4831C99.2358 21.3088 98.8079 20.1682 98.0106 19.3055Z" fill="white"/>
<path d="M73.7129 29.173V15.7975H76.3929V17.6843C77.1886 16.2926 78.7256 15.4501 80.6372 15.4501C81.3219 15.4316 82.0035 15.5491 82.6424 15.7961C83.2814 16.043 83.8649 16.4144 84.3592 16.8887C85.379 17.8568 85.8987 19.2214 85.8987 21.0344V29.1632H83.1448V21.8029C83.1448 19.3397 81.854 17.9824 79.9425 17.9824C77.8832 17.9824 76.4422 19.5687 76.4422 21.8522V29.173H73.7129Z" fill="white"/>
<path d="M67.5813 12.1741C67.5828 11.9308 67.633 11.6903 67.7288 11.4667C67.8246 11.2431 67.9642 11.0408 68.1393 10.8719C68.3144 10.703 68.5215 10.5708 68.7484 10.4831C68.9754 10.3954 69.2176 10.3539 69.4607 10.3612C69.6996 10.3585 69.9365 10.4036 70.1576 10.4938C70.3788 10.584 70.5797 10.7174 70.7486 10.8863C70.9175 11.0552 71.0509 11.2561 71.1411 11.4772C71.2313 11.6984 71.2763 11.9353 71.2737 12.1741C71.2813 12.4166 71.24 12.6581 71.1522 12.8842C71.0644 13.1104 70.932 13.3165 70.7628 13.4903C70.5935 13.6641 70.391 13.8021 70.1673 13.8959C69.9436 13.9897 69.7033 14.0375 69.4607 14.0364C69.2137 14.0424 68.9681 13.9984 68.7385 13.9072C68.5089 13.8159 68.3001 13.6793 68.1246 13.5054C67.949 13.3315 67.8105 13.1239 67.7171 12.8952C67.6237 12.6664 67.5775 12.4212 67.5813 12.1741ZM70.7835 29.1707H68.0542V15.7976H70.7835V29.1707Z" fill="white"/>
<path d="M47.4786 29.1731L41.249 10.834H44.3355L48.5231 23.9115L53.1639 10.834H54.6813L59.4157 23.9115L63.549 10.834H66.6257L60.4084 29.1731H58.4969L53.9571 16.0216L49.4394 29.1731H47.4786Z" fill="white"/>
</g>
<defs>
<clipPath id="clip0_1_1082">
<rect width="40" height="40" fill="white"/>
</clipPath>
<clipPath id="clip1_1_1082">
<rect width="100" height="40" fill="white" transform="translate(40)"/>
</clipPath>
</defs>
</svg>
