<svg width="243" height="64" viewBox="0 0 243 64" fill="none" xmlns="http://www.w3.org/2000/svg">
<g clip-path="url(#clip0_1_1052)">
<path d="M40.6825 14.5454V26.1818H29.0462V49.4545H17.4098V26.1818H5.77344V14.5454H40.6825ZM75.5914 14.5455H52.3187V26.1818H75.5914V14.5455Z" fill="#949CB2"/>
<path d="M75.5915 37.8183V49.4546H40.6824L40.6826 26.1819H52.3188V37.8183H75.5915ZM97.5841 22.6911H81.6035V27.3068H86.9563V41.7747H92.2314V27.3068H97.5841V22.6911ZM103.596 27.1516C99.8338 27.1516 97.041 29.6729 97.041 34.6377C97.041 39.0207 99.4071 42.085 103.712 42.085C105.962 42.085 107.785 41.5032 109.531 40.4559L107.669 37.3141C106.234 38.051 105.225 38.3226 103.945 38.3226C102.626 38.3226 101.695 37.6244 101.502 36.0341H109.919C109.957 35.8013 109.957 35.491 109.957 35.0644C109.996 29.7504 107.552 27.1516 103.596 27.1516ZM101.579 32.9698C101.734 31.5347 102.355 30.7977 103.48 30.7977C104.915 30.7977 105.419 31.5347 105.652 32.9698H101.579ZM119.305 38.0898C117.986 38.0898 117.288 36.9262 117.288 34.6377C117.288 32.388 117.909 31.108 119.189 31.108C120.236 31.108 120.702 31.6898 121.4 32.9698L124.774 30.4098C123.533 28.3929 121.982 27.1516 119.266 27.1516C114.689 27.1516 112.44 30.1771 112.44 34.5601C112.44 39.3698 114.961 42.0462 119.15 42.0462C121.671 42.0462 123.223 41.0765 124.891 38.6329L121.788 36.1892C120.857 37.5856 120.236 38.0898 119.305 38.0898ZM136.217 27.1517C134.51 27.1517 133.502 27.7335 132.609 28.3929V21.9153L127.683 23.8935V41.8135H132.609V33.6293C132.609 31.845 133.23 31.3408 134.277 31.3408C135.286 31.3408 135.906 31.845 135.906 33.668V41.8135H140.832V33.0474C140.832 29.285 139.32 27.1517 136.217 27.1517ZM152.663 37.4692C150.374 37.4692 149.443 35.1419 149.443 32.2328C149.443 29.2074 150.413 26.9964 152.624 26.9964C154.369 26.9964 155.029 28.1213 155.688 29.9055L160.498 28.0049C159.179 24.3977 157.317 22.3807 152.624 22.3807C147.504 22.3807 143.897 26.1043 143.897 32.2328C143.897 37.8958 146.922 42.0849 152.585 42.0849C157.123 42.0849 159.257 39.6413 160.537 37.1589L156.076 34.7928C155.029 36.5771 154.331 37.4692 152.663 37.4692ZM168.45 28.5092V27.4619H163.524V41.7747H168.45V33.9783C168.45 32.2329 169.187 31.651 170.389 31.651C171.359 31.651 172.057 32.1553 172.677 32.8535L173.841 27.7723C173.259 27.4232 172.561 27.1516 171.514 27.1516C170.234 27.1516 169.264 27.6947 168.45 28.5092ZM184.353 35.6463C184.353 37.4305 183.732 37.9347 182.724 37.9347C181.715 37.9347 181.094 37.4305 181.094 35.6075V27.462H176.168V36.2281C176.168 39.9905 177.681 42.085 180.823 42.085C182.491 42.085 183.538 41.5032 184.391 40.8438V41.8135H189.318V27.5008H184.391L184.353 35.6463ZM201.38 27.1516C199.674 27.1516 198.665 27.7335 197.773 28.3929V27.4232H192.847V41.7359H197.773V33.5516C197.773 31.7674 198.394 31.2632 199.441 31.2632C200.449 31.2632 201.07 31.7674 201.07 33.5904V41.7359H205.996V32.9698C205.996 29.285 204.522 27.1516 201.38 27.1516ZM215.771 38.0898C214.452 38.0898 213.754 36.9262 213.754 34.6377C213.754 32.388 214.374 31.108 215.616 31.108C216.663 31.108 217.128 31.6898 217.827 32.9698L221.201 30.4098C219.96 28.3929 218.408 27.1516 215.693 27.1516C211.116 27.1516 208.867 30.1771 208.867 34.5601C208.867 39.3698 211.388 42.0462 215.577 42.0462C218.098 42.0462 219.65 41.0765 221.317 38.6329L218.214 36.1892C217.361 37.5856 216.702 38.0898 215.771 38.0898ZM232.682 27.1517C230.976 27.1517 229.967 27.7335 229.075 28.3929V21.9153L224.149 23.8935V41.8135H229.075V33.6293C229.075 31.845 229.696 31.3408 230.743 31.3408C231.751 31.3408 232.372 31.845 232.372 33.668V41.8135H237.298V33.0474C237.337 29.285 235.824 27.1517 232.682 27.1517Z" fill="#949CB2"/>
</g>
<defs>
<clipPath id="clip0_1_1052">
<rect width="243" height="64" fill="white"/>
</clipPath>
</defs>
</svg>
