<svg width="121" height="64" viewBox="0 0 121 64" fill="none" xmlns="http://www.w3.org/2000/svg">
<g clip-path="url(#clip0_1_1062)">
<path d="M10.5 10.2546H18.4273V30.2546H23.2273V10.2546H31.1545V5.81825H10.5V10.2546ZM48.6092 25.7455H39.3728V19.9273H47.3728V15.4182H39.3728V10.2546H48.6092V5.81825H34.5728V30.2546H48.6092V25.7455ZM63.6638 26.2545C59.3001 26.2545 56.391 22.7636 56.391 18.0364C56.391 13.3091 59.3001 9.8909 63.591 9.8909C66.8638 9.8909 68.682 11.3454 69.5547 13.7455H74.791C73.482 8.8 69.8456 5.38181 63.591 5.38181C56.4638 5.38181 51.3729 10.6909 51.3729 18.0364C51.3729 25.3818 56.4638 30.7636 63.591 30.7636C69.8456 30.7636 73.5547 27.4909 74.8638 22.1818H69.7729C69.0456 24.5091 67.082 26.2545 63.6638 26.2545ZM83.082 19.9273H93.5547V30.2546H98.3547V19.8546H103.882C104.537 20.6546 105.482 21.2364 106.646 21.2364C108.609 21.2364 110.209 19.5637 110.209 17.6001C110.209 15.5637 108.609 13.9637 106.646 13.9637C105.482 13.9637 104.537 14.5455 103.882 15.3455H98.3547V2.18188H93.5547V15.3455H83.082V5.81825H78.282V30.2546H83.082V19.9273ZM10.5 40.9455H18.4273V60.9455H23.2273V40.9455H31.1545V36.5091H10.5V40.9455ZM37.5545 35.0546C35.8818 35.0546 34.5 36.3637 34.5 38.0364C34.5 39.7091 35.8091 41.0182 37.5545 41.0182C39.2273 41.0182 40.6091 39.7818 40.6091 38.0364C40.5364 36.3637 39.1545 35.0546 37.5545 35.0546ZM39.7364 43.2728H35.2273V60.9455H39.7364V43.2728ZM58.0635 52.2182L57.5544 53.6728L56.9726 52.2182L49.9908 36.5091H44.5362V60.9455H49.2635V45.4546L49.9908 47.6364L55.518 60.9455H59.5908L65.118 47.6364L65.8453 45.4546V60.9455H70.6453V36.5091H65.118L58.0635 52.2182ZM75.5909 60.9455H89.6273V56.4364H80.3909V50.6182H88.3909V46.1091H80.3909V40.9455H89.6273V36.5091H75.5909V60.9455ZM102.136 46.4001C99.1546 45.382 97.8455 44.7274 97.8455 42.9092C97.8455 41.2365 98.8637 40.291 100.609 40.291C102.282 40.291 103.518 41.382 103.591 43.3456H108.464C108.246 38.4729 105.336 36.0729 100.755 36.0729C95.9546 36.0729 93.0455 39.1274 93.0455 43.3456C93.0455 47.4183 95.6637 49.382 100.027 50.8365C103.082 51.8547 104.318 52.8001 104.318 54.4001C104.318 56.0001 103.155 57.1638 101.118 57.1638C98.6455 57.1638 97.4092 55.8547 97.2637 53.4547H92.391C92.5364 58.1092 95.4455 61.382 100.973 61.382C105.555 61.382 109.118 58.691 109.118 53.9638C109.191 50.3274 107.373 48.1456 102.136 46.4001Z" fill="#949CB2"/>
</g>
<defs>
<clipPath id="clip0_1_1062">
<rect width="121" height="64" fill="white"/>
</clipPath>
</defs>
</svg>
