<svg width="288" height="64" viewBox="0 0 288 64" fill="none" xmlns="http://www.w3.org/2000/svg">
<g clip-path="url(#clip0_1_1065)">
<path d="M282.506 40.7036C281.692 40.7036 281.013 41.3906 281.013 42.3178C281.013 43.2446 281.692 43.9316 282.506 43.9316C283.321 43.9316 284 43.2446 284 42.3178C284 41.3906 283.321 40.7036 282.506 40.7036ZM228.468 43.8281H235.324V43.2104L234.579 43.0386C233.899 42.8667 233.593 42.4893 233.593 41.5274V32.189H235.189C236.174 32.189 236.683 32.4292 236.75 34.5239L236.92 38.9185C237.056 42.8667 238.176 43.9658 240.078 43.9658C242.012 43.9658 242.521 42.6265 242.521 40.7383V39.9483H241.808V40.5318C241.808 41.8027 241.639 42.6953 241.163 42.6953C240.722 42.6953 240.688 42.352 240.586 40.7725L240.383 37.7514C240.111 33.6997 239.602 32.292 236.649 31.7422C239.466 30.9873 241.197 28.8926 241.197 25.9053C241.197 22.0254 238.176 20.1714 235.291 20.1714H223.717V20.7896L224.361 20.9268C225.583 21.2016 225.617 21.854 225.617 24.6352V38.3003C225.617 41.3564 224.768 42.8325 222.833 42.8325C221.103 42.8325 220.152 41.9741 220.152 38.6436V22.4033C220.152 21.4419 220.457 21.1675 221.204 20.9956L222.121 20.7896V20.1714H215.027V20.7896L215.773 20.9956C216.452 21.2017 216.69 21.4765 216.69 22.4375V38.4033C216.69 42.0083 218.761 44 221.917 44C225.074 44 226.635 42.0083 226.635 38.3003V23.3989C226.635 21.5449 227.009 20.8926 228.502 20.8926C229.69 20.8926 230.2 21.3047 230.2 22.4375V41.5274C230.2 42.4893 229.894 42.8325 229.215 43.0044L228.468 43.2104V43.8281ZM274.02 22.4375C274.02 21.4765 274.326 21.1675 275.005 21.0298L275.921 20.8237V20.1714H268.861V20.7896L269.608 20.9956C270.287 21.2017 270.592 21.4765 270.592 22.4375V41.6655C270.592 42.5923 270.219 43.1074 269.166 43.1074C267.944 43.1074 267.775 42.6953 267.334 40.6699L262.989 20.103H261.631L257.491 40.0171C257.015 42.2486 256.777 42.7641 255.861 43.0386L255.283 43.2104V43.8281H260.137V43.2104L259.425 43.0728C258.406 42.8667 258.135 42.3178 258.644 39.708L261.088 26.9697L263.769 40.4634C264.177 42.4204 264.143 42.7983 262.683 43.0728L261.971 43.2104V43.8281H279.961V36H279.316C278.976 39.605 278.264 43.0044 275.379 43.0044H274.02V22.4375ZM263.43 37.4419V36.5151H258.848L258.712 37.4419H263.43ZM244.49 22.8496V39.2617C244.49 41.7339 244.49 42.9013 243.268 43.1074L242.657 43.2104V43.8281H247.646V43.2104C245.474 42.9014 245.474 42.146 245.474 39.4678V23.8799L244.66 23.1245L252.976 43.8281H254.401V24.7383C254.401 21.9228 254.401 21.3047 255.759 20.9268L256.234 20.7896V20.1714H251.108V20.7896L251.686 20.9268C253.417 21.2358 253.417 21.9228 253.417 24.5322V36.4805L253.756 36.3775L247.443 20.1714H242.589V20.7896L243.064 20.9268C243.608 21.0986 243.913 21.7168 244.49 22.8496ZM233.593 20.9956H234.952C236.309 20.9956 237.565 21.8882 237.565 26.352C237.565 30.9185 236.615 31.3647 234.714 31.3647H233.593V20.9956ZM210.988 31.7768C210.988 41.6992 210.173 43.1074 208.408 43.1074C206.643 43.1074 205.862 41.6992 205.862 31.8452C205.862 22.3003 206.711 20.9268 208.408 20.9268C210.173 20.9268 210.988 22.3003 210.988 31.7768ZM214.688 31.9829C214.688 25.4248 212.617 20 208.408 20C204.165 20 202.162 25.4248 202.162 31.9829C202.162 38.5752 204.233 44 208.408 44C212.719 44 214.688 38.5752 214.688 31.9829ZM200.16 22.4375C200.16 21.4765 200.398 21.1675 201.076 20.9956L201.823 20.7896V20.1714H194.797V20.7896L195.645 20.9956C196.323 21.1675 196.698 21.4077 196.698 22.4033V38.9185C196.698 41.2188 196.493 43.0728 194.797 43.0728C193.71 43.0728 192.896 42.2144 192.93 41.5967C193.031 40.5318 194.797 40.601 194.932 38.8838C195.034 37.6479 194.253 37.1328 193.541 37.0303C192.488 36.8926 191.199 37.7852 191.164 39.5708C191.13 41.8711 192.624 43.9658 195.17 43.9658C197.987 43.9658 200.16 42.0429 200.16 38.3687V22.4375ZM86.7881 22.4375C86.7881 21.4765 87.0937 21.1675 87.7724 21.0298L88.689 20.8237V20.1714H81.6288V20.7896L82.3756 20.9956C83.0543 21.2017 83.3598 21.4765 83.3598 22.4375V41.6655C83.3598 42.5923 82.9863 43.1074 81.9339 43.1074C80.7122 43.1074 80.5085 42.6953 80.0673 40.6699L75.7224 20.103H74.3649L70.2237 40.0171C69.7487 42.2486 69.5108 42.7641 68.5945 43.0386L68.0173 43.2104V43.8281H72.8714V43.2104L72.1584 43.0728C71.1404 42.8667 70.8686 42.3178 71.3779 39.708L73.8219 26.9009L76.5034 40.4634C76.8765 42.4204 76.8765 42.7983 75.4172 43.0728L74.7043 43.2104V43.8281H92.7284V36H92.0835C91.7441 39.605 91.0312 43.0044 88.146 43.0044H86.7881V22.4375ZM181.286 20.9956H182.034C184.139 20.9956 184.851 24.3946 185.089 28H185.733V20.1714H173.412V28H174.057C174.295 24.3946 175.008 20.9956 177.112 20.9956H177.859V41.5274C177.859 42.4893 177.553 42.8325 176.874 43.0044L175.992 43.2104V43.8281H183.324V43.2104L182.271 42.9702C181.626 42.7983 181.286 42.5923 181.286 41.5274V20.9956ZM165.775 31.9483L166.827 31.9829C168.354 32.0171 168.795 32.6011 169.102 36.3437H169.746V26.7983H169.102C168.728 29.7856 168.32 31.0557 166.861 31.0903L165.775 31.1245V20.9956H168.117C170.731 20.9956 171.308 24.3262 171.681 28H172.326V20.1714H160.616V20.7896L161.362 20.9956C162.142 21.2017 162.347 21.6826 162.347 22.4722V41.5274C162.347 42.4893 162.041 42.8325 161.362 43.0044L160.616 43.2105V43.8281H172.665V36H172.02C171.613 39.5708 171.172 43.0044 168.117 43.0044H165.775V31.9483ZM152.978 31.9483L154.03 31.9829C155.558 32.0171 155.999 32.6011 156.304 36.3437H156.949V26.7983H156.304C155.931 29.7856 155.524 31.0557 154.065 31.0903L152.978 31.1245V20.9956H155.32C157.934 20.9956 158.511 24.3946 158.884 28H159.529V20.1714H147.479V20.7896L148.566 20.9956C149.346 21.2017 149.55 21.6826 149.55 22.4722V41.5274C149.55 42.4893 149.244 42.8325 148.566 43.0044L147.819 43.2105V43.8281H159.868V36H159.224C158.816 39.5708 158.375 43.0044 155.32 43.0044H152.978V31.9483ZM139.027 20.9956H140.046C141.403 20.9956 142.659 21.8882 142.659 26.352C142.659 30.8496 141.709 31.3647 139.808 31.3647H139.027V20.9956ZM133.902 43.8281H140.759V43.2104L140.011 43.0386C139.333 42.8667 139.027 42.4893 139.027 41.5274V32.189H140.283C141.267 32.189 141.777 32.6011 141.845 34.5239L142.014 38.9185C142.15 42.8667 143.27 43.9658 145.171 43.9658C147.106 43.9658 147.615 42.6265 147.615 40.7383V39.9483H146.902V40.5318C146.902 41.8027 146.733 42.6953 146.257 42.6953C145.816 42.6953 145.782 42.352 145.68 40.7725L145.476 37.7514C145.205 33.5967 144.662 32.292 141.743 31.7422C144.56 30.9873 146.291 28.8926 146.291 25.9053C146.291 22.0254 143.27 20.1714 140.385 20.1714H133.902V20.7896L134.648 20.9956C135.328 21.2017 135.633 21.4765 135.633 22.4375V41.5274C135.633 42.4893 135.328 42.8325 134.648 43.0044L133.902 43.2104V43.8281ZM128.709 20.9956H129.455C131.559 20.9956 132.272 24.3946 132.51 28H133.155V20.1714H120.834V28H121.478C121.716 24.3946 122.429 20.9956 124.534 20.9956H125.28V41.5274C125.28 42.4893 124.974 42.8325 124.296 43.0044L123.413 43.2104V43.8281H130.575V43.2104L129.693 43.0044C128.81 42.7983 128.709 42.1118 128.709 41.5274V20.9956ZM120.867 37.6821C120.867 30.6436 113.23 28.7896 113.23 23.6738C113.23 22.5752 113.638 20.9268 115.334 20.9268C117.778 20.9268 118.695 24.1201 119.103 28H119.747V20.1714H119.34C119.17 20.9268 118.865 21.2705 118.424 21.2705C117.643 21.2705 117.235 20.0342 115.369 20.0342C112.484 20.0342 110.515 22.4722 110.515 25.665C110.515 31.4678 118.152 33.9053 118.152 39.2617C118.152 41.6993 117.032 43.0728 115.504 43.0728C113.23 43.0728 111.737 40.3608 111.329 36H110.684V43.8281H111.092C111.431 42.6953 111.872 42.5923 112.246 42.5923C112.891 42.5923 113.57 43.9658 115.538 43.9658C118.559 43.9658 120.867 41.3222 120.867 37.6821ZM98.6344 22.4375C98.6344 21.4765 98.94 21.1675 99.6187 21.0298L100.535 20.8237V20.1714H93.4751V20.7896L94.2219 20.9956C94.9006 21.2017 95.2062 21.4765 95.2062 22.4375V41.5274C95.2062 42.4893 94.9006 42.8325 94.2219 43.0044L93.4751 43.2104V43.8281H104.575V36H103.929C103.59 39.605 102.877 43.0044 99.9923 43.0044H98.6344V22.4375ZM76.1636 37.4419V36.5151H71.5816L71.4455 37.4419H76.1636ZM56.5445 43.897H57.9362L61.0927 27.0044H60.6177L64.0797 43.897H65.302L69.4432 23.9829C69.8844 21.8882 70.1219 21.1675 70.9367 20.961L71.5816 20.7896V20.1714H66.7955V20.7896L67.5084 20.9268C68.5265 21.1328 68.764 21.751 68.289 24.2915L65.6075 37.6479H66.0149L63.2992 23.5708C63.0274 22.2315 62.858 21.1328 63.9783 20.9268L64.7247 20.7896V20.1714H58.1737V20.7896L58.6149 20.8926C59.2941 21.064 59.3959 21.4765 59.6672 22.7812L60.7195 27.897L60.5158 24.8066L58.1737 37.3047H58.4793L55.7297 23.5708C55.4242 22.1631 55.3223 21.0986 56.4084 20.8926L56.9181 20.7896V20.1714H50.2311V20.7896L50.876 20.961C51.4867 21.1328 51.8265 21.4419 52.2339 23.3301L56.5445 43.897ZM38.4186 31.9483L39.4709 31.9829C40.9982 32.0171 41.4394 32.6011 41.745 36.3437H42.3899V26.7983H41.745C41.3718 29.7856 40.9644 31.0557 39.5047 31.0903L38.4186 31.1245V20.9956H40.7607C43.3742 20.9956 43.9515 24.3946 44.3246 28H44.9695V20.1714H33.2593V20.7896L34.0061 20.9956C34.7866 21.2017 34.9903 21.6826 34.9903 22.4722V41.5274C34.9903 42.4893 34.6848 42.8325 34.0061 43.0044L33.2593 43.2105V43.8281H45.3093V36H44.664C44.257 39.5708 43.8158 43.0044 40.7607 43.0044H38.4186V31.9483ZM17.0681 43.8281H24.0264V43.2104L23.2459 43.0386C22.6348 42.9014 22.2274 42.4893 22.2274 41.5274V32.1548H27.3528V41.5274C27.3528 42.4893 26.9459 42.9014 26.3348 43.0386L25.5542 43.2104V43.8281H32.5125V43.2104L31.7658 43.0044C31.0871 42.8325 30.7811 42.4546 30.7811 41.4936V22.4375C30.7811 21.4765 31.0871 21.1675 31.7658 20.9956L32.5125 20.7896V20.1714H25.5542V20.7896L26.3348 20.9956C26.9116 21.1675 27.3528 21.4077 27.3528 22.4033V31.2275H22.2274V22.4033C22.2274 21.4419 22.601 21.1675 23.2459 20.9956L24.0264 20.7896V20.1714H17.0681V20.7896L17.8148 20.9956C18.494 21.2017 18.7991 21.4765 18.7991 22.4375V41.5274C18.7991 42.4893 18.494 42.8325 17.8148 43.0044L17.0681 43.2104V43.8281ZM11.8746 20.9956H12.6218C14.726 20.9956 15.4389 24.3946 15.6764 28H16.3213V20.1714H4V28H4.64491C4.88242 24.3946 5.59537 20.9956 7.69956 20.9956H8.44632V41.5274C8.44632 42.4893 8.14121 42.8325 7.46205 43.0044L6.57964 43.2104V43.8281H13.9116V43.2104L12.8593 42.9702C12.2144 42.7983 11.8746 42.5923 11.8746 41.5274V20.9956Z" fill="#949CB2"/>
</g>
<defs>
<clipPath id="clip0_1_1065">
<rect width="288" height="64" fill="white"/>
</clipPath>
</defs>
</svg>
